<?xml version="1.0" encoding="utf-8"?>
<!-- Generator: Adobe Illustrator 26.0.1, SVG Export Plug-In . SVG Version: 6.00 Build 0)  -->
<svg version="1.1" id="Layer_1" xmlns="http://www.w3.org/2000/svg" xmlns:xlink="http://www.w3.org/1999/xlink" x="0px" y="0px"
	 viewBox="0 0 267.1 270.1" style="enable-background:new 0 0 267.1 270.1;" xml:space="preserve">
<style type="text/css">
	.st0{fill:#F9CED0;}
</style>
<path class="st0" d="M251.7,126.7c-4.1-0.1-7.6,3-8.6,7.4c-6.3,0.5-13.5,0.7-21.4,0.2c-4.4-0.3-8.6-0.7-12.5-1.3c0-0.8,0-1.5,0-2.3
	c0-3.7-0.3-7.4-0.8-11c2-1.5,4.5-3.2,7.5-4.5c5.2-2.4,10.1-3.3,13.9-3.5c1.9,4.2,6.1,6.7,10.2,5.6c4.6-1.2,7.2-6.4,5.9-11.7
	c-1.4-5.3-6.2-8.5-10.8-7.3c-4.2,1.1-6.7,5.6-6.1,10.3c-3.3,1.9-8.2,4-14.3,4.1c-3,0.1-5.6-0.3-7.8-0.9c-1.4-5.6-3.3-10.9-5.8-15.9
	c2.6-2.4,5.7-4.9,9.4-7.4c5.3-3.6,10.3-6.1,14.8-7.9c2.9,3.4,7.5,4.6,11.1,2.5c4.1-2.4,5.3-8.2,2.6-12.9c-2.7-4.7-8.2-6.6-12.3-4.2
	c-3.6,2.1-4.9,6.7-3.4,11c-3.8,3-8.5,6.2-14.2,9c-3.8,1.9-7.5,3.4-10.8,4.5c-2.7-4.6-5.9-8.9-9.5-12.8c1.4-5,3.7-10.9,7.7-16.8
	c3.7-5.5,7.8-9.5,11.3-12.4c3.9,2.4,8.7,2,11.5-1.1c3.1-3.6,2.4-9.4-1.6-13c-4-3.6-9.8-3.6-13,0c-2.8,3.2-2.5,8.1,0.3,11.7
	c-2.3,3.8-5.7,8.5-10.7,12.9c-5.6,4.9-11.1,7.9-15.4,9.6c-4.8-3.7-10.1-6.9-15.7-9.4c0.8-2.3,1.9-4.6,3.3-6.9
	c1.1-1.8,2.4-3.4,3.6-4.8c4.3,1.8,9.1,0.5,11.2-3.2c2.4-4.1,0.7-9.7-4-12.5c-4.6-2.8-10.3-1.7-12.8,2.4c-2.1,3.6-1,8.4,2.4,11.4
	c-0.7,1.9-1.6,3.9-2.6,5.9c-1.2,2.3-2.5,4.5-3.8,6.5c-0.6-0.2-1.1-0.5-1.7-0.7c-6.7-2.5-13.8-4.1-21.3-4.7c-1.2-3.3-2.3-7-3-11.1
	c-1.5-8.3-1.2-15.5-0.5-20.9c4.4-0.8,7.7-4.3,7.7-8.5c0-4.8-4.3-8.7-9.7-8.7c-5.4,0-9.7,3.9-9.7,8.7c0,4.2,3.4,7.8,7.9,8.5
	c1,5.3,1.6,12.8,0.1,21.4c-0.7,3.8-1.7,7.3-2.8,10.4c-7.1,0.4-14,1.8-20.5,4c-0.9-1.4-1.7-3-2.4-4.8c-1.4-3.6-2-6.9-2.3-9.7
	c4.2-2.2,6.4-6.8,4.9-10.9c-1.6-4.5-7-6.7-12.1-4.8c-5,1.9-7.8,7-6.2,11.5c1.4,3.9,5.6,6,10,5.3c1.3,2.7,2.5,5.7,3.5,9.2
	c0.5,1.8,0.9,3.6,1.2,5.4c-5.9,2.4-11.4,5.4-16.5,9.1c-2.7-2-5.4-4.2-8.1-6.9c-6.2-6.1-10.4-12.4-13.1-17.4c3-3.4,3.5-8.2,1-11.5
	c-2.9-3.8-8.7-4.2-13-0.9c-4.3,3.3-5.4,9.1-2.5,12.9c2.6,3.4,7.4,4.1,11.4,1.9c3.9,3.6,9,9.2,13,17.2c1.8,3.7,3.1,7.3,4,10.6
	c-0.8,0.8-1.6,1.5-2.4,2.3c-4,4-7.5,8.5-10.5,13.3c-1.8-0.5-3.6-1.2-5.5-1.9c-6.2-2.5-11-5.7-14.4-8.5c1.5-4.3,0-9-3.6-11
	c-4.2-2.3-9.6-0.3-12.2,4.4c-2.6,4.8-1.3,10.5,2.9,12.8c3.7,2,8.3,0.7,11.1-2.8c4.2,1.5,9.5,3.8,14.9,7.7c1.6,1.2,3.1,2.3,4.5,3.5
	c-4.3,7.8-7.3,16.4-8.7,25.6c-3.7,0.3-7.7,0.5-12,0.3c-6.1-0.2-11.6-0.9-16.5-1.9c-0.1-4.8-3.3-8.8-7.6-9.2c-4.7-0.5-9,3.5-9.6,8.9
	c-0.6,5.4,2.8,10.2,7.5,10.7c4.2,0.4,8-2.7,9.3-7.1c4.9,0.1,10.5,0.5,16.5,1.6c4.2,0.7,8,1.6,11.6,2.7c-0.2,2.1-0.2,4.2-0.2,6.3
	c0,5,0.5,10,1.4,14.8c-4.1,2.7-9.7,5.8-16.9,8c-6.3,1.9-12,2.6-16.5,2.7c-1.6-4.3-5.7-6.9-9.8-6.1c-4.7,0.9-7.6,6-6.6,11.3
	c1,5.3,5.6,8.9,10.3,8c4-0.8,6.8-4.7,6.8-9.2c4.6-1.5,10.1-2.9,16.3-3.9c7.1-1.1,13.5-1.2,18.9-1c2.2,6.6,5.2,12.8,8.9,18.5
	c-1.8,1.4-3.7,2.8-6,4.1c-4.2,2.5-8.3,4-11.8,5.1c-2.4-3.9-6.9-5.7-10.7-4.1c-4.4,1.8-6.3,7.3-4.3,12.4c1.3,3.2,3.8,5.4,6.6,6.1
	c1.6,0.5,3.4,0.4,5-0.3c0.5-0.2,0.9-0.4,1.4-0.7c3.2-2.1,4.6-6.6,3.2-10.9c3.3-1.7,7.2-3.5,11.7-4.9c2.9-0.9,5.7-1.6,8.2-2.1
	c2.4,3.1,5,6,7.8,8.7c0.3,0.3,0.5,0.5,0.8,0.7c-1.9,4.3-4.7,9.4-9,14.7c-4.2,5.1-8.6,8.9-12.2,11.5c-3.7-2.6-8.5-2.6-11.5,0.4
	c-3.4,3.4-3.1,9.2,0.7,13.1c3.8,3.9,9.6,4.3,12.9,0.9c2.9-2.9,3.1-7.7,0.6-11.5c2.9-3.8,6.6-8.1,11.5-12.3
	c5.2-4.5,10.3-7.9,14.7-10.4c5.9,4.2,12.4,7.6,19.3,10.1c-0.3,2.6-0.7,5.5-1.5,8.5c-1.7,6.5-4.2,11.7-6.4,15.6
	c-4.5-0.9-8.9,1.2-10.4,5.1c-1.7,4.5,1,9.7,6,11.6c5,2,10.4-0.1,12.2-4.6c1.5-3.9-0.3-8.3-4.1-10.7c1.1-4.6,2.8-10.1,5.5-16
	c1.3-2.9,2.7-5.5,4.2-7.9c5.3,1.5,10.9,2.4,16.7,2.6c0.9,4.5,1.7,9.6,2.1,15.2c0.6,8.3,0.1,15.6-0.7,21.6c-4.4,0.9-7.6,4.3-7.6,8.5
	c0,4.8,4.3,8.7,9.7,8.7c5.4,0,9.7-3.9,9.7-8.7c0-4.1-3.2-7.6-7.6-8.5c-0.7-6.2-1.1-13.5-0.7-21.6c0.3-5.5,0.9-10.6,1.7-15.2
	c6-0.2,11.8-1.2,17.4-2.7c0.5,0.8,0.9,1.7,1.4,2.6c3,5.8,4.7,11.3,5.5,15.7c-3.9,2.3-5.8,6.7-4.4,10.6c1.6,4.5,7,6.7,12.1,4.9
	c5.1-1.8,7.9-7,6.3-11.5c-1.4-4-5.8-6.2-10.3-5.3c-2.1-3.6-4.5-9-5.3-16c-0.1-0.9-0.2-1.7-0.2-2.5c6.2-2.2,12-5.1,17.4-8.7
	c3.5,2.8,7.1,6.2,10.7,10.3c5.6,6.2,9.6,12.3,12.6,17.5c-3,3.4-3.5,8.2-1,11.5c2.9,3.8,8.7,4.2,13,0.9c4.3-3.3,5.4-9.1,2.5-12.9
	c-2.5-3.3-7.2-4-11.1-2c-4.3-4.4-9-9.9-13.6-16.7c-2.9-4.4-5.4-8.7-7.4-12.7c2.2-1.8,4.2-3.6,6.2-5.6c3.2-3.3,6.1-6.8,8.8-10.6
	c4.8,1.4,10.3,3.3,16.2,6.3c5.7,2.9,10.4,6,14.2,8.9c-1.4,4.3-0.1,8.9,3.5,10.9c4.1,2.4,9.6,0.5,12.3-4.2c2.7-4.7,1.5-10.5-2.6-12.8
	c-3.6-2.1-8.3-0.9-11.2,2.6c-4.3-1.6-9.4-4.1-14.8-7.9c-5.6-3.9-9.8-8.2-12.8-11.8c2.1-3.9,3.8-8,5.2-12.2c2.3,0.1,4.7,0.3,7.3,0.7
	c6.5,1,11.9,2.8,16.1,4.7c-0.4,4.5,2.2,8.7,6.2,9.7c4.6,1.2,9.4-2.1,10.8-7.4c1.3-5.3-1.3-10.5-5.9-11.7c-4-1.1-8.3,1.4-10.1,5.6
	c-4.4-0.4-10.1-1.3-16.3-3.8c-2.3-0.9-4.5-2-6.5-3c1-3.9,1.7-8,2-12.2c4-0.3,8.3-0.5,12.7-0.5c7.9,0,15.1,0.6,21.4,1.4
	c0.8,4.4,4.1,7.7,8.2,7.8c4.8,0.1,8.7-4.2,8.9-9.6C260.1,131.4,256.4,126.9,251.7,126.7z"/>
</svg>
