<?xml version="1.0" encoding="utf-8"?>
<!-- Generator: Adobe Illustrator 26.0.1, SVG Export Plug-In . SVG Version: 6.00 Build 0)  -->
<svg version="1.1" id="Layer_1" xmlns="http://www.w3.org/2000/svg" xmlns:xlink="http://www.w3.org/1999/xlink" x="0px" y="0px"
	 viewBox="0 0 73.7 74.4" style="enable-background:new 0 0 73.7 74.4;" xml:space="preserve">
<style type="text/css">
	.st0{fill:#E73938;}
	.st1{fill:#F3A0A1;}
	.st2{fill:#EF7D7F;}
	.st3{fill:#F7BDBE;}
	.st4{fill:#F3A0A2;}
</style>
<path class="st0" d="M52.4,37c0,1.2,1,2.2,2.2,2.2h5c2.5,0,5.1,0.6,7.3,1.7c0.7,0.3,1.5,0.5,2.3,0.5c2.2-0.1,4-1.9,4.1-4.1
	c0.2-2.6-1.9-4.7-4.4-4.7c-0.7,0-1.3,0.2-1.9,0.4c-2.3,1.1-4.8,1.8-7.4,1.8h-5C53.4,34.8,52.4,35.8,52.4,37z"/>
<path class="st0" d="M22.6,51.3c-0.7-0.7-1.9-0.7-2.6,0l-2.9,2.9c-1.5,1.5-3.3,2.6-5.3,3.3c-0.6,0.2-1.2,0.6-1.6,1.1
	C9,59.9,9,62,10.2,63.3c1.4,1.6,3.8,1.7,5.3,0.2c0.4-0.4,0.7-0.9,0.9-1.4c0.7-2,1.8-3.9,3.3-5.4l2.9-2.9
	C23.3,53.1,23.3,52,22.6,51.3z"/>
<path class="st0" d="M49,24.9c0.7,0.7,1.9,0.7,2.7,0l3.1-3.1c1.6-1.6,3.5-2.7,5.5-3.4c0.6-0.2,1.2-0.6,1.7-1.1c1.2-1.4,1.2-3.6,0-5
	c-1.5-1.7-4-1.7-5.6-0.2c-0.4,0.4-0.7,0.9-0.9,1.4c-0.7,2.1-1.9,4-3.5,5.6L49,22.2C48.2,22.9,48.2,24.1,49,24.9z"/>
<path class="st1" d="M36.9,52.5c-1.2,0-2.2,1-2.2,2.2v5c0,2.5-0.6,5.1-1.7,7.3c-0.3,0.7-0.5,1.5-0.5,2.3c0.1,2.2,1.9,4,4.1,4.1
	c2.6,0.2,4.7-1.9,4.7-4.4c0-0.7-0.2-1.3-0.4-1.9c-1.1-2.3-1.8-4.8-1.8-7.4v-5C39.1,53.5,38.1,52.5,36.9,52.5z"/>
<path class="st0" d="M40.8,67.1c-1.1-2.3-1.8-4.8-1.8-7.4v-5c0-1.2-1-2.2-2.2-2.2c-1.2,0-2.2,1-2.2,2.2v5c0,2.6,0.6,5.1,1.8,7.4
	c0.3,0.6,0.4,1.2,0.4,1.9c0,1.6-0.9,3-2.2,3.8c0.6,0.3,1.2,0.5,1.9,0.6c2.6,0.2,4.7-1.9,4.7-4.4C41.3,68.3,41.1,67.7,40.8,67.1z"/>
<path class="st2" d="M20.5,27.9c4,0,7.2-3.2,7.2-7.2s-3.2-7.2-7.2-7.2s-7.2,3.2-7.2,7.2S16.5,27.9,20.5,27.9z"/>
<path class="st0" d="M20.5,13.5c-0.8,0-1.5,0.1-2.2,0.3c2.9,0.9,5,3.6,5,6.8s-2.1,5.9-5,6.8c0.7,0.2,1.4,0.3,2.2,0.3
	c4,0,7.2-3.2,7.2-7.2C27.6,16.7,24.4,13.5,20.5,13.5z"/>
<path class="st3" d="M36.9,60.5c13,0,23.5-10.5,23.5-23.5c0-13-10.5-23.5-23.5-23.5c-13,0-23.5,10.5-23.5,23.5
	C13.4,49.9,23.9,60.5,36.9,60.5z"/>
<path class="st4" d="M36.9,13.5c-0.7,0-1.5,0-2.2,0.1C46.6,14.7,56,24.8,56,37c0,12.2-9.3,22.3-21.3,23.4c0.7,0.1,1.5,0.1,2.2,0.1
	c13,0,23.5-10.5,23.5-23.5C60.4,24,49.8,13.5,36.9,13.5z"/>
<path class="st1" d="M45.7,33.7c2.6,0,4.8-2.1,4.8-4.8s-2.1-4.8-4.8-4.8c-2.6,0-4.8,2.1-4.8,4.8S43,33.7,45.7,33.7z"/>
<path class="st2" d="M45.7,24.2c-0.8,0-1.5,0.2-2.2,0.5c1.5,0.8,2.6,2.4,2.6,4.2s-1,3.4-2.6,4.2c0.7,0.3,1.4,0.5,2.2,0.5
	c2.6,0,4.8-2.1,4.8-4.8S48.3,24.2,45.7,24.2z"/>
<path class="st2" d="M28.5,49.4c1.8,0,3.2-1.4,3.2-3.2c0-1.8-1.4-3.2-3.2-3.2c-1.8,0-3.2,1.4-3.2,3.2C25.3,47.9,26.7,49.4,28.5,49.4
	z"/>
<path class="st0" d="M52.9,58.8c2.4,0,4.4-2,4.4-4.4c0-2.4-2-4.4-4.4-4.4c-2.4,0-4.4,2-4.4,4.4C48.4,56.8,50.4,58.8,52.9,58.8z"/>
<path class="st2" d="M52.9,50c-0.8,0-1.6,0.2-2.2,0.6c1.3,0.8,2.2,2.2,2.2,3.8s-0.9,3-2.2,3.8c0.6,0.4,1.4,0.6,2.2,0.6
	c2.4,0,4.4-2,4.4-4.4S55.3,50,52.9,50z"/>
<path class="st0" d="M21.4,37c0,1.2-1,2.2-2.2,2.2h-5c-2.5,0-5.1,0.6-7.3,1.7c-0.7,0.3-1.5,0.5-2.3,0.5c-2.2-0.1-4-1.9-4.1-4.1
	c-0.2-2.6,1.9-4.7,4.4-4.7c0.7,0,1.3,0.2,1.9,0.4c2.3,1.1,4.8,1.8,7.4,1.8h5C20.4,34.8,21.4,35.8,21.4,37z"/>
<path class="st1" d="M36.9,21.4c1.2,0,2.2-1,2.2-2.2v-5c0-2.5,0.6-5.1,1.7-7.3c0.3-0.7,0.5-1.5,0.5-2.3c-0.1-2.2-1.9-4-4.1-4.1
	c-2.6-0.2-4.7,1.9-4.7,4.4c0,0.7,0.2,1.3,0.4,1.9c1.1,2.3,1.8,4.8,1.8,7.4v5C34.7,20.5,35.7,21.4,36.9,21.4z"/>
<path class="st0" d="M41.3,4.6c-0.1-2.2-1.9-4-4.1-4.1c-0.9-0.1-1.8,0.2-2.5,0.6c1.2,0.7,2.1,2,2.2,3.5c0.1,0.8-0.1,1.6-0.5,2.3
	c-1.1,2.3-1.7,4.8-1.7,7.3v5c0,1.2,1,2.2,2.2,2.2s2.2-1,2.2-2.2v-5c0-2.5,0.6-5.1,1.7-7.3C41.2,6.2,41.3,5.4,41.3,4.6z"/>
<path class="st2" d="M68.9,32.6c-0.7,0-1.3,0.2-1.9,0.4c-0.1,0-0.2,0.1-0.3,0.1c1.4,0.8,2.3,2.4,2.2,4.1c-0.1,1.5-1,2.8-2.2,3.5
	c0.1,0,0.2,0.1,0.2,0.1c0.7,0.3,1.5,0.5,2.3,0.5c2.2-0.1,3.9-1.9,4.1-4.1C73.5,34.7,71.5,32.6,68.9,32.6z"/>
</svg>
