<?xml version="1.0" encoding="utf-8"?>
<!-- Generator: Adobe Illustrator 26.0.1, SVG Export Plug-In . SVG Version: 6.00 Build 0)  -->
<svg version="1.1" id="Layer_1" xmlns="http://www.w3.org/2000/svg" xmlns:xlink="http://www.w3.org/1999/xlink" x="0px" y="0px"
	 viewBox="0 0 172.8 63.2" style="enable-background:new 0 0 172.8 63.2;" xml:space="preserve">
<style type="text/css">
	.st0{fill:#035755;}
	.st1{fill:#EA4E4B;}
	.st2{fill:#F3A0A1;}
	.st3{fill:#EF7D7F;}
	.st4{fill:#F7BDBE;}
	.st5{fill:#F3A0A2;}
</style>
<path class="st0" d="M85.1,36.8c0.7,0,1.3-0.1,2-0.4c0.6-0.3,1.1-0.7,1.6-1.3l1.8,1.8c-0.6,0.7-1.4,1.3-2.4,1.8c-1,0.4-2,0.7-3,0.7
	c-1,0-1.9-0.2-2.8-0.5c-0.9-0.4-1.6-0.8-2.2-1.4c-0.6-0.6-1.1-1.3-1.5-2.2c-0.4-0.8-0.5-1.7-0.5-2.7c0-1,0.2-1.9,0.6-2.7
	c0.4-0.8,0.9-1.6,1.5-2.2c0.6-0.6,1.4-1.1,2.2-1.4c0.9-0.4,1.8-0.5,2.8-0.5c1.1,0,2.1,0.2,3.1,0.7c1,0.4,1.8,1,2.4,1.8L88.6,30
	c-0.5-0.6-1-1-1.7-1.3c-0.6-0.3-1.3-0.5-2-0.5c-0.6,0-1.2,0.1-1.7,0.3c-0.5,0.2-1,0.5-1.3,0.9c-0.4,0.4-0.7,0.8-0.9,1.4
	c-0.2,0.5-0.3,1.1-0.3,1.7c0,0.6,0.1,1.2,0.3,1.7c0.2,0.5,0.5,1,0.9,1.3c0.4,0.4,0.8,0.7,1.4,0.9C83.9,36.7,84.4,36.8,85.1,36.8z
	 M105.2,32.5c0,1-0.2,1.8-0.6,2.7c-0.4,0.8-0.9,1.6-1.5,2.2c-0.6,0.6-1.4,1.1-2.2,1.4c-0.9,0.4-1.8,0.5-2.8,0.5
	c-1,0-1.9-0.2-2.8-0.5c-0.9-0.4-1.6-0.8-2.2-1.4c-0.6-0.6-1.1-1.3-1.5-2.2c-0.4-0.8-0.6-1.7-0.6-2.7c0-0.9,0.2-1.8,0.6-2.7
	c0.4-0.8,0.9-1.6,1.5-2.2c0.6-0.6,1.4-1.1,2.2-1.5s1.8-0.5,2.8-0.5c1,0,1.9,0.2,2.8,0.5c0.9,0.4,1.6,0.8,2.2,1.5
	c0.6,0.6,1.1,1.3,1.5,2.2C105.1,30.7,105.2,31.6,105.2,32.5z M102.4,32.5c0-0.6-0.1-1.2-0.3-1.7c-0.2-0.5-0.5-1-0.9-1.4
	c-0.4-0.4-0.8-0.7-1.3-0.9c-0.5-0.2-1.1-0.3-1.7-0.3s-1.2,0.1-1.7,0.3c-0.5,0.2-1,0.5-1.3,0.9c-0.4,0.4-0.7,0.8-0.9,1.4
	c-0.2,0.5-0.3,1.1-0.3,1.7c0,0.6,0.1,1.2,0.3,1.7c0.2,0.5,0.5,1,0.9,1.4c0.4,0.4,0.8,0.7,1.3,0.9c0.5,0.2,1.1,0.3,1.7,0.3
	s1.2-0.1,1.7-0.3c0.5-0.2,1-0.5,1.3-0.9c0.4-0.4,0.7-0.9,0.9-1.4C102.3,33.7,102.4,33.1,102.4,32.5z M110.5,39.2l-5.4-13.3h3
	l4.1,10.5l4.2-10.5h2.8l-5.5,13.3H110.5z M120.3,39.2V25.9h2.8v13.3H120.3z M125.5,39.2V25.9h5.1c1,0,1.9,0.2,2.8,0.5
	c0.9,0.3,1.6,0.8,2.2,1.4c0.6,0.6,1.1,1.3,1.5,2.1c0.4,0.8,0.6,1.7,0.6,2.6c0,0.9-0.2,1.8-0.6,2.6c-0.4,0.8-0.8,1.5-1.5,2.1
	c-0.6,0.6-1.4,1-2.2,1.4c-0.9,0.3-1.8,0.5-2.8,0.5H125.5z M130.6,28.3h-2.3v8.4h2.3c0.6,0,1.1-0.1,1.6-0.3c0.5-0.2,1-0.5,1.3-0.9
	c0.4-0.4,0.7-0.8,0.9-1.3c0.2-0.5,0.3-1.1,0.3-1.6c0-0.6-0.1-1.2-0.3-1.7c-0.2-0.5-0.5-1-0.9-1.3c-0.4-0.4-0.8-0.7-1.3-0.9
	C131.7,28.4,131.2,28.3,130.6,28.3z M142.9,32.6h7.1v2.2h-7.1V32.6z M160.3,25.9v13.3h-2.6V28.5l-2.6,1.1v-2.3l3.6-1.4H160.3z
	 M166.9,25.6c0.9,0,1.7,0.2,2.4,0.5c0.7,0.3,1.3,0.8,1.8,1.3c0.5,0.6,0.9,1.3,1.2,2.1c0.3,0.8,0.4,1.7,0.4,2.7c0,1.1-0.2,2-0.5,2.9
	c-0.3,0.9-0.8,1.6-1.3,2.2c-0.6,0.6-1.3,1.1-2.1,1.4c-0.8,0.3-1.7,0.5-2.7,0.5c-0.7,0-1.4-0.1-2.1-0.3c-0.7-0.2-1.3-0.6-1.8-1
	l1.5-1.9c0.4,0.3,0.8,0.5,1.2,0.7s0.9,0.2,1.4,0.2c1.1,0,2-0.4,2.7-1.2c0.7-0.8,1-1.9,1.1-3.3c-0.4,0.5-1,0.9-1.6,1.1
	c-0.6,0.3-1.3,0.4-2,0.4c-0.7,0-1.3-0.1-1.9-0.3c-0.6-0.2-1.1-0.5-1.5-0.8c-0.4-0.4-0.7-0.8-1-1.3c-0.2-0.5-0.3-1.1-0.3-1.7
	c0-0.6,0.1-1.2,0.4-1.7c0.3-0.5,0.6-1,1-1.4c0.4-0.4,1-0.7,1.6-0.9C165.5,25.7,166.2,25.6,166.9,25.6z M167,32.1
	c0.6,0,1.1-0.1,1.7-0.4c0.5-0.3,1-0.6,1.4-1.1c-0.2-0.8-0.6-1.5-1.1-2c-0.5-0.5-1.2-0.8-1.9-0.8c-0.7,0-1.3,0.2-1.8,0.6
	c-0.5,0.4-0.7,0.9-0.7,1.5s0.2,1.1,0.7,1.5C165.6,31.9,166.2,32.1,167,32.1z"/>
<path class="st1" d="M45.1,31.7c0,1.1,0.9,1.9,1.9,1.9h4.3c2.2,0,4.4,0.5,6.3,1.5c0.6,0.3,1.3,0.4,2,0.4c1.9-0.1,3.4-1.7,3.5-3.5
	c0.1-2.2-1.6-4.1-3.8-4.1c-0.6,0-1.2,0.1-1.6,0.4c-2,1-4.2,1.5-6.4,1.5H47C46,29.8,45.1,30.6,45.1,31.7z"/>
<path class="st1" d="M19.4,44c-0.6-0.6-1.6-0.6-2.2,0l-2.5,2.5c-1.3,1.3-2.9,2.3-4.6,2.8c-0.5,0.2-1,0.5-1.4,0.9c-1,1.2-1,3,0,4.1
	c1.2,1.4,3.3,1.4,4.6,0.2c0.3-0.3,0.6-0.8,0.7-1.2c0.6-1.7,1.6-3.3,2.9-4.6l2.5-2.5C20,45.6,20,44.6,19.4,44z"/>
<path class="st1" d="M42.2,21.2c0.6,0.6,1.7,0.6,2.3,0l2.6-2.6c1.3-1.3,3-2.4,4.8-3c0.5-0.2,1-0.5,1.4-1c1.1-1.2,1.1-3.1,0-4.3
	c-1.3-1.4-3.5-1.5-4.8-0.2c-0.4,0.4-0.6,0.8-0.8,1.2c-0.6,1.8-1.6,3.5-3,4.8l-2.6,2.6C41.5,19.5,41.5,20.6,42.2,21.2z"/>
<path class="st2" d="M31.7,45.1c-1.1,0-1.9,0.9-1.9,1.9v4.3c0,2.2-0.5,4.4-1.5,6.3c-0.3,0.6-0.4,1.3-0.4,2c0.1,1.9,1.7,3.4,3.5,3.5
	c2.2,0.1,4.1-1.6,4.1-3.8c0-0.6-0.1-1.2-0.4-1.6c-1-2-1.5-4.2-1.5-6.4V47C33.6,45.9,32.8,45.1,31.7,45.1z"/>
<path class="st1" d="M35.1,57.7c-1-2-1.5-4.2-1.5-6.4V47c0-1-0.9-1.9-1.9-1.9c-1.1,0-1.9,0.9-1.9,1.9v4.3c0,2.2,0.6,4.4,1.5,6.4
	c0.2,0.5,0.4,1.1,0.4,1.7c0,1.4-0.8,2.6-1.9,3.3c0.5,0.3,1.1,0.5,1.6,0.5c2.2,0.1,4.1-1.6,4.1-3.8C35.5,58.8,35.4,58.2,35.1,57.7z"
	/>
<path class="st3" d="M17.5,23.8c3.4,0,6.2-2.8,6.2-6.2c0-3.4-2.8-6.2-6.2-6.2c-3.4,0-6.2,2.8-6.2,6.2C11.3,21,14.1,23.8,17.5,23.8z"
	/>
<path class="st1" d="M17.5,11.4c-0.7,0-1.3,0.1-1.9,0.3c2.5,0.8,4.3,3.1,4.3,5.9c0,2.8-1.8,5.1-4.3,5.9c0.6,0.2,1.2,0.3,1.9,0.3
	c3.4,0,6.2-2.8,6.2-6.2S20.9,11.4,17.5,11.4z"/>
<path class="st4" d="M31.7,51.9c11.2,0,20.3-9.1,20.3-20.3c0-11.2-9.1-20.3-20.3-20.3c-11.2,0-20.3,9.1-20.3,20.3
	C11.4,42.9,20.5,51.9,31.7,51.9z"/>
<path class="st5" d="M31.7,11.4c-0.6,0-1.3,0-1.9,0.1c10.3,1,18.4,9.6,18.4,20.2c0,10.6-8.1,19.2-18.4,20.2c0.6,0.1,1.3,0.1,1.9,0.1
	c11.2,0,20.3-9.1,20.3-20.3C52,20.5,42.9,11.4,31.7,11.4z"/>
<path class="st2" d="M39.3,28.8c2.3,0,4.1-1.8,4.1-4.1c0-2.3-1.8-4.1-4.1-4.1c-2.3,0-4.1,1.8-4.1,4.1C35.2,27,37,28.8,39.3,28.8z"/>
<path class="st3" d="M39.3,20.6c-0.7,0-1.3,0.2-1.9,0.5c1.3,0.7,2.2,2.1,2.2,3.7c0,1.6-0.9,3-2.2,3.7c0.6,0.3,1.2,0.5,1.9,0.5
	c2.3,0,4.1-1.8,4.1-4.1C43.4,22.5,41.6,20.6,39.3,20.6z"/>
<path class="st3" d="M24.5,42.4c1.5,0,2.8-1.2,2.8-2.8s-1.2-2.8-2.8-2.8c-1.5,0-2.8,1.2-2.8,2.8S22.9,42.4,24.5,42.4z"/>
<path class="st1" d="M45.5,50.5c2.1,0,3.8-1.7,3.8-3.8s-1.7-3.8-3.8-3.8s-3.8,1.7-3.8,3.8S43.4,50.5,45.5,50.5z"/>
<path class="st3" d="M45.5,42.9c-0.7,0-1.3,0.2-1.9,0.5c1.1,0.7,1.9,1.9,1.9,3.3c0,1.4-0.8,2.6-1.9,3.3c0.6,0.3,1.2,0.5,1.9,0.5
	c2.1,0,3.8-1.7,3.8-3.8C49.3,44.6,47.6,42.9,45.5,42.9z"/>
<path class="st1" d="M18.3,31.7c0,1.1-0.9,1.9-1.9,1.9h-4.3c-2.2,0-4.4,0.5-6.3,1.5c-0.6,0.3-1.3,0.4-2,0.4
	c-1.9-0.1-3.4-1.7-3.5-3.5c-0.1-2.2,1.6-4.1,3.8-4.1c0.6,0,1.2,0.1,1.7,0.4c2,1,4.2,1.5,6.4,1.5h4.3C17.4,29.8,18.3,30.6,18.3,31.7z
	"/>
<path class="st2" d="M31.7,18.2c1.1,0,1.9-0.9,1.9-1.9V12c0-2.2,0.5-4.4,1.5-6.3c0.3-0.6,0.4-1.3,0.4-2c-0.1-1.9-1.7-3.4-3.5-3.5
	C29.7,0,27.9,1.8,27.9,4c0,0.6,0.1,1.2,0.4,1.7c1,2,1.5,4.2,1.5,6.4v4.3C29.8,17.4,30.7,18.2,31.7,18.2z"/>
<path class="st1" d="M35.5,3.7c-0.1-1.9-1.7-3.4-3.5-3.5c-0.8-0.1-1.5,0.1-2.2,0.5c1.1,0.6,1.8,1.7,1.9,3c0,0.7-0.1,1.4-0.4,2
	c-1,2-1.5,4.1-1.5,6.3v4.3c0,1.1,0.9,1.9,1.9,1.9c1.1,0,1.9-0.9,1.9-1.9V12c0-2.2,0.5-4.4,1.5-6.3C35.4,5.1,35.5,4.4,35.5,3.7z"/>
<path class="st3" d="M59.4,27.9c-0.6,0-1.2,0.1-1.6,0.4c-0.1,0-0.2,0.1-0.3,0.1c1.2,0.7,2,2,1.9,3.5c-0.1,1.3-0.8,2.4-1.9,3
	c0.1,0,0.1,0.1,0.2,0.1c0.6,0.3,1.3,0.4,2,0.4c1.9-0.1,3.4-1.7,3.5-3.5C63.3,29.7,61.6,27.9,59.4,27.9z"/>
</svg>
